<?xml version="1.0" standalone="no"?>
<!DOCTYPE svg PUBLIC "-//W3C//DTD SVG 20010904//EN"
 "http://www.w3.org/TR/2001/REC-SVG-20010904/DTD/svg10.dtd">
<svg version="1.0" xmlns="http://www.w3.org/2000/svg"
 width="512.000000pt" height="512.000000pt" viewBox="0 0 512.000000 512.000000"
 preserveAspectRatio="xMidYMid meet">

<g transform="translate(0.000000,512.000000) scale(0.100000,-0.100000)"
fill="#000000" stroke="none">
<path d="M465 5101 c-54 -26 -429 -403 -450 -453 -18 -44 -19 -85 -5 -125 6
-16 434 -451 978 -995 l967 -968 -972 -972 c-962 -964 -972 -973 -978 -1020
-13 -86 0 -105 219 -327 126 -128 216 -210 241 -222 45 -21 90 -24 132 -9 16
6 451 434 996 978 l967 967 968 -967 c544 -544 979 -972 995 -978 42 -15 87
-12 132 9 25 12 115 94 241 222 219 222 232 241 219 327 -6 47 -16 56 -978
1020 l-972 972 967 968 c544 544 972 979 978 995 15 42 12 87 -9 132 -26 54
-403 429 -453 450 -44 18 -85 19 -125 5 -16 -6 -451 -434 -995 -978 l-968
-967 -967 967 c-545 544 -980 972 -996 978 -42 15 -87 12 -132 -9z"/>
</g>
</svg>
